<svg xmlns="http://www.w3.org/2000/svg" xmlns:xlink="http://www.w3.org/1999/xlink" xmlns:fi="http://pattern.flaticon.com/" x="0" y="0" width="700" height="350" viewBox="0 0 700 350"><rect x="0px" y="0px" width="100%" height="100%" opacity="1" fill="#65ffe5"/><defs><g transform="matrix(0.8108108043670654 0 0 0.8108108043670654 152 28)" id="L1_22"><path d="M66.75,71H7.25A4.255,4.255,0,0,1,3,66.75V7.25A4.255,4.255,0,0,1,7.25,3h59.5A4.255,4.255,0,0,1,71,7.25v59.5A4.255,4.255,0,0,1,66.75,71ZM7.25,5A2.253,2.253,0,0,0,5,7.25v59.5A2.253,2.253,0,0,0,7.25,69h59.5A2.253,2.253,0,0,0,69,66.75V7.25A2.253,2.253,0,0,0,66.75,5Z" fill="#00edc6"/><path d="M26,51.978a1,1,0,0,1-.91-.585L20.357,41.022H15a1,1,0,0,1,0-2h6a1,1,0,0,1,.91.585l3.746,8.208,5.366-25a1,1,0,0,1,.978-.79H59a1,1,0,0,1,0,2H32.809L26.978,51.188a1,1,0,0,1-.869.784A1.022,1.022,0,0,1,26,51.978Z" fill="#00edc6"/><path d="M41,47a1,1,0,0,1-.707-1.707l12-12a1,1,0,0,1,1.414,1.414l-12,12A1,1,0,0,1,41,47Z" fill="#00edc6"/><path d="M53,47a1,1,0,0,1-.707-.293l-12-12a1,1,0,0,1,1.414-1.414l12,12A1,1,0,0,1,53,47Z" fill="#00edc6"/></g><g transform="matrix(0.0995902270078659 0 0 0.0995902270078659 35.50484275817871 255.5048427581787)" id="L1_28"><path d="M492.245,377.007c-11.009-0.211-20.184,8.531-20.417,19.575c-0.004,0.193-0.671,19.863-10.122,39.103     c-12.005,24.438-32.029,36.318-61.215,36.318c-14.747,0-25.734-4.3-33.591-13.146c-17.351-19.537-17.111-57.787-15.561-70.831     c0.028-0.229,0.053-0.458,0.073-0.687c0.102-1.155,10.335-116.617,17.536-214.871c0.808-11.016-7.468-20.601-18.484-21.408     c-11.016-0.813-20.601,7.468-21.408,18.484c-7.015,95.705-16.92,207.856-17.464,214.002c-0.306,2.724-1.77,17.432-0.048,35.585     c2.644,27.873,11.164,50.128,25.323,66.145c15.455,17.485,37.456,26.727,63.623,26.727c24.553,0,45.887-6.207,63.411-18.448     c14.084-9.838,25.424-23.375,33.706-40.234c13.463-27.407,14.187-54.746,14.211-55.896     C512.052,386.381,503.288,377.24,492.245,377.007z" fill="#00edc6"/><path d="M469.756,77.424c18.535-12.323,32.598-29.638,40.669-50.073c4.058-10.273-0.982-21.89-11.255-25.948     c-10.272-4.057-21.89,0.981-25.948,11.255c-10.24,25.927-36.38,43.347-65.046,43.347H146.826     c-45.647,0-85.448,20.129-115.103,58.211C10.03,142.074,1.398,170.02,1.041,171.196c-3.207,10.57,2.752,21.768,13.322,24.976     c1.942,0.589,3.902,0.87,5.831,0.87c8.569-0.001,16.488-5.543,19.106-14.171c0.07-0.227,7.252-22.973,24.728-45.025     c22.001-27.764,49.859-41.841,82.799-41.841h36.378c-0.466,7.43-0.94,15.349-1.432,23.59     c-3.966,66.409-9.398,157.362-24.761,232.27c-15.889,77.471-39.393,120.137-66.184,120.137c-11.046,0-20,8.954-20,20     s8.954,20,20,20c28.422,0,52.323-16.671,71.039-49.55c13.988-24.572,25.217-58.115,34.33-102.551     c15.937-77.706,21.467-170.307,25.506-237.922c0.546-9.141,1.069-17.898,1.582-25.974v-0.002h184.892     C430.181,96.004,451.474,89.579,469.756,77.424z" fill="#00edc6"/></g><path d="M17.217,10.131c-0.64-0.742-1.517-1.113-2.632-1.113c-0.749,0-1.401,0.174-1.957,0.525   c-0.554,0.352-0.966,0.85-1.23,1.494C11.133,11.68,11,12.365,11,13.089s0.134,1.407,0.398,2.051s0.677,1.142,1.23,1.492   c0.556,0.351,1.208,0.528,1.957,0.528c1.115,0,1.992-0.373,2.632-1.114s0.961-1.727,0.961-2.957   C18.178,11.86,17.857,10.87,17.217,10.131z M15.693,15.283c-0.242,0.275-0.596,0.414-1.057,0.414c-0.467,0-0.811-0.139-1.045-0.414   c-0.372-0.429-0.556-1.117-0.556-2.063c0-0.949,0.184-1.639,0.556-2.065c0.234-0.282,0.578-0.423,1.045-0.423   c0.461,0,0.814,0.136,1.057,0.411c0.371,0.437,0.557,1.128,0.557,2.077C16.25,14.166,16.064,14.855,15.693,15.283z M6.217,2.131   C5.577,1.389,4.7,1.018,3.585,1.018c-0.749,0-1.401,0.174-1.957,0.525c-0.554,0.352-0.966,0.85-1.23,1.494   C0.133,3.68,0,4.365,0,5.089S0.134,6.497,0.398,7.14c0.265,0.644,0.677,1.142,1.23,1.492c0.556,0.351,1.208,0.529,1.957,0.529   c1.115,0,1.992-0.373,2.632-1.115c0.64-0.741,0.961-1.727,0.961-2.957S6.857,2.87,6.217,2.131z M4.693,7.283   C4.451,7.558,4.097,7.697,3.636,7.697c-0.467,0-0.811-0.139-1.045-0.414C2.219,6.854,2.035,6.166,2.035,5.22   c0-0.948,0.184-1.638,0.556-2.065c0.234-0.283,0.578-0.423,1.045-0.423c0.461,0,0.814,0.136,1.057,0.412   C5.064,3.58,5.25,4.272,5.25,5.22C5.25,6.167,5.064,6.855,4.693,7.283z M14.548,1.09L5.867,17.142H3.723L12.382,1.09H14.548z" transform="matrix(2.4375782099398253 0.30469727034717714 -0.30469727034717714 2.4375782099398253 277.53742640278676 142.10258063763868)" fill="#00edc6" id="L1_30"/></defs><g fi:class="KUsePattern"><pattern id="pattern_L1_22" width="350" height="350" patternUnits="userSpaceOnUse"><use xlink:href="#L1_22" x="-350" y="-350"/><use xlink:href="#L1_22" x="0" y="-350"/><use xlink:href="#L1_22" x="350" y="-350"/><use xlink:href="#L1_22" x="-350" y="0"/><use xlink:href="#L1_22" x="0" y="0"/><use xlink:href="#L1_22" x="350" y="0"/><use xlink:href="#L1_22" x="-350" y="350"/><use xlink:href="#L1_22" x="0" y="350"/><use xlink:href="#L1_22" x="350" y="350"/></pattern><rect x="0" y="0" width="100%" height="100%" fill="url(#pattern_L1_22)"/></g><g fi:class="KUsePattern" opacity="0.46"><pattern id="pattern_L1_30" width="350" height="350" patternUnits="userSpaceOnUse"><use xlink:href="#L1_30" x="-350" y="-350"/><use xlink:href="#L1_30" x="0" y="-350"/><use xlink:href="#L1_30" x="350" y="-350"/><use xlink:href="#L1_30" x="-350" y="0"/><use xlink:href="#L1_30" x="0" y="0"/><use xlink:href="#L1_30" x="350" y="0"/><use xlink:href="#L1_30" x="-350" y="350"/><use xlink:href="#L1_30" x="0" y="350"/><use xlink:href="#L1_30" x="350" y="350"/></pattern><rect x="0" y="0" width="100%" height="100%" fill="url(#pattern_L1_30)"/></g><g fi:class="KUsePattern" opacity="0.57"><pattern id="pattern_L1_28" width="350" height="350" patternUnits="userSpaceOnUse"><use xlink:href="#L1_28" x="-350" y="-350"/><use xlink:href="#L1_28" x="0" y="-350"/><use xlink:href="#L1_28" x="350" y="-350"/><use xlink:href="#L1_28" x="-350" y="0"/><use xlink:href="#L1_28" x="0" y="0"/><use xlink:href="#L1_28" x="350" y="0"/><use xlink:href="#L1_28" x="-350" y="350"/><use xlink:href="#L1_28" x="0" y="350"/><use xlink:href="#L1_28" x="350" y="350"/></pattern><rect x="0" y="0" width="100%" height="100%" fill="url(#pattern_L1_28)"/></g></svg>